<svg width="48" height="48" viewBox="0 0 48 48" fill="none" xmlns="http://www.w3.org/2000/svg">
<path d="M23.5518 22.5943L16.2278 18.2892C14.3592 17.1909 12.0436 17.1857 10.1702 18.2756L4.98286 21.2934C3.13612 22.3678 2 24.3431 2 26.4797V32.6128C2 34.7493 3.13612 36.7246 4.98286 37.799L10.1858 40.8259C12.0509 41.9109 14.355 41.9109 16.2201 40.8259L21.4231 37.799C23.2698 36.7246 24.4059 34.7493 24.4059 32.6128V32.1532" stroke="#8247E5" stroke-width="4" stroke-linecap="round"/>
<path d="M24.4142 26.9392L31.7157 30.8423C33.6248 31.8628 35.9362 31.7751 37.7639 30.6129L42.8326 27.3895C44.6359 26.2428 45.694 24.2238 45.6105 22.0889L45.3709 15.9607C45.2875 13.8258 44.075 11.8971 42.1878 10.8968L36.8705 8.07859C34.9645 7.0684 32.6623 7.15979 30.8411 8.31795L25.6301 11.6318C23.8972 12.7337 22.8476 14.6449 22.8476 16.6979L22.8476 16.8226" stroke="#8247E5" stroke-width="4" stroke-linecap="round"/>
<path d="M23.5518 22.5943L16.2278 18.2892C14.3592 17.1909 12.0436 17.1857 10.1702 18.2756L4.98286 21.2934C3.13612 22.3678 2 24.3431 2 26.4797V32.6128C2 34.7493 3.13612 36.7246 4.98286 37.799L10.1858 40.8259C12.0509 41.9109 14.355 41.9109 16.2201 40.8259L21.4231 37.799C23.2698 36.7246 24.4059 34.7493 24.4059 32.6128V32.1532" stroke="white" stroke-width="2" stroke-linecap="round"/>
<path d="M24.4142 26.9392L31.7157 30.8423C33.6248 31.8628 35.9362 31.7751 37.7639 30.6129L42.8326 27.3895C44.6359 26.2428 45.694 24.2238 45.6105 22.0889L45.3709 15.9607C45.2875 13.8258 44.075 11.8971 42.1878 10.8968L36.8705 8.07859C34.9645 7.0684 32.6623 7.15979 30.8411 8.31795L25.6301 11.6318C23.8972 12.7337 22.8476 14.6449 22.8476 16.6979L22.8476 16.7325" stroke="white" stroke-width="2" stroke-linecap="round"/>
</svg>
